<svg xmlns="http://www.w3.org/2000/svg" viewBox="50 494 750 115" preserveAspectRatio="xMidYMid meet">
  <path fill="#162035" d="m 58.81974,599.3663 c 0,-0.88872 5.242691,-22.00123 13.997965,-56.37032 4.378471,-17.18783 8.389618,-33.04216 8.91366,-35.23185 0.524041,-2.18969 1.235231,-4.40181 1.580421,-4.91582 0.508625,-0.75738 7.828616,-0.93703 38.608464,-0.94758 20.88946,-0.007 47.87645,0.09 59.97108,0.21601 l 21.99024,0.22902 -3.44235,2.78931 c -4.49468,3.642 -9.03433,9.96922 -11.27009,15.70789 l -1.79078,4.59651 -32.42914,0.0107 c -17.83603,0.006 -32.82512,0.24293 -33.30908,0.5267 -0.73907,0.43334 -4.07877,11.53891 -4.07877,13.5632 0,0.38376 12.754,0.64682 31.35962,0.64682 26.94726,0 31.30044,0.14195 30.93905,1.0089 -0.23132,0.5549 -1.54135,5.60772 -2.9112,11.2285 l -2.49062,10.21959 -31.30922,0.18324 -31.30922,0.18323 -4.19583,15.44973 -4.19583,15.44973 -2.28863,0.21542 c -2.375243,0.22357 -35.498298,4.73035 -39.860386,5.42347 -1.363645,0.21668 -2.479354,0.13458 -2.479354,-0.18245 z m 166.78107,-2.30417 c -21.87258,-1.12102 -30.63826,-3.51604 -36.90124,-10.08239 -3.24692,-3.40419 -4.27613,-7.27964 -3.75457,-14.13769 0.60884,-8.00578 10.52265,-46.26032 13.45362,-51.91363 5.71557,-11.0243 14.74048,-16.2223 33.21301,-19.12944 9.67169,-1.52209 54.28749,-1.74199 66.3704,-0.32711 15.54011,1.81971 22.61648,3.90192 27.7392,8.16225 6.66056,5.53928 7.34935,13.18933 2.87735,31.95734 -7.35028,30.8475 -9.99338,37.5192 -17.42709,43.98929 -6.7246,5.8529 -14.02524,8.6789 -26.78058,10.36647 -9.58061,1.26755 -43.32571,1.9075 -58.7901,1.11491 z m 48.34097,-25.98456 c 2.15304,-1.10973 4.03671,-2.80357 5.07627,-4.5647 0.9091,-1.54011 3.43867,-9.95573 5.62128,-18.70136 4.46256,-17.88142 4.43161,-18.73049 -0.77142,-21.16101 -2.37096,-1.10756 -4.67229,-1.22525 -20.59683,-1.05339 -19.61795,0.21173 -22.0592,0.66407 -24.86604,4.60746 -1.53685,2.15915 -8.52567,27.46628 -9.21316,33.36164 -0.68883,5.90693 0.76882,7.81916 6.99702,9.17907 0.83917,0.18323 8.90661,0.27996 17.92764,0.21496 15.98397,-0.11518 16.4891,-0.16315 19.82524,-1.88267 z m 217.12295,25.2603 c -16.71191,-1.06369 -26.66211,-4.21244 -30.5937,-9.6814 -2.33828,-3.25263 -3.63874,-9.20293 -3.01919,-13.81442 0.42879,-3.1916 8.64141,-35.55397 17.50944,-68.99709 l 0.41898,-1.58009 h 21.39746 c 20.01685,0 21.37258,0.0793 21.01185,1.22896 -0.68198,2.1735 -4.09888,14.84824 -8.47197,31.42615 -2.3434,8.8836 -5.16831,19.47017 -6.27757,23.52573 -3.78919,13.85352 -1.88175,15.12527 21.95389,14.63728 17.83861,-0.36521 18.73402,-1.11775 23.59616,-19.83149 1.73608,-6.68195 5.46352,-20.80846 8.2832,-31.39225 l 5.1267,-19.24325 20.8127,-0.18694 c 19.59185,-0.17598 20.78886,-0.11419 20.40619,1.05339 -0.22358,0.68218 -3.51427,12.93297 -7.31266,27.22397 -9.93778,37.38976 -11.60642,41.78005 -18.78733,49.43044 -7.37056,7.85246 -23.62606,13.64326 -43.40751,15.46334 -11.78683,1.08451 -31.7675,1.43012 -42.64664,0.73767 z m -131.28957,-0.69444 c -10.04807,-0.7766 -15.51012,-1.86131 -20.08043,-3.98777 -10.88372,-5.06394 -12.20999,-11.76344 -6.71345,-33.91221 8.10233,-32.64906 7.95472,-32.14767 11.17537,-37.95904 2.82947,-5.10552 9.38052,-10.84362 14.72251,-12.89553 10.80723,-4.15116 10.66996,-4.14112 60.66646,-4.43897 l 46.03865,-0.27428 -0.5225,2.8469 c -0.28738,1.5658 -1.60859,6.87917 -2.93604,11.80749 l -2.41354,8.96058 -35.09239,0.35113 c -23.95307,0.23967 -35.69779,0.60612 -36.99959,1.15444 -4.55138,1.91706 -5.35546,3.62458 -9.61379,20.41539 -2.23192,8.80061 -4.07153,16.99315 -4.08803,18.20565 -0.0448,3.29509 2.11067,5.25746 6.50393,5.92118 2.07072,0.31284 18.2757,0.58764 36.01107,0.61066 l 32.24614,0.0419 2.24872,0.0468 c -0.52259,-0.0109 -0.85536,12.60262 4.03183,16.89395 l 7.06696,6.20534 -57.66138,0.45884 c -20.74791,0.1651 -40.81423,-0.16007 -44.59048,-0.45194 z m 208.91886,-1.42038 c 8.49141,-3.21277 17.0811,-10.43774 20.64848,-17.36787 l 2.22966,-4.33143 44.17697,-0.19198 c 42.72254,-0.18566 44.21262,-0.23686 45.25951,-1.55516 1.54619,-1.94705 1.39183,-5.80876 -0.26481,-6.62492 -0.74104,-0.36508 -13.63285,-2.44753 -28.64847,-4.62767 -30.18375,-4.38244 -36.91613,-5.74021 -42.70847,-8.61339 -7.90796,-3.92258 -9.35842,-8.69868 -6.341,-20.87971 2.95245,-11.91878 4.64264,-15.54782 9.19146,-19.7352 4.47301,-4.11758 9.73833,-6.06266 19.74978,-7.29581 3.64526,-0.449 25.57136,-0.73504 56.34388,-0.73504 41.84146,0 50.30978,0.15975 49.98332,0.94289 -0.21617,0.51858 -1.64521,5.33784 -3.17563,10.70947 -1.53043,5.37162 -2.95931,10.3227 -3.1753,11.00239 -0.36912,1.1616 -2.90454,1.23032 -42.22146,1.14441 -23.00582,-0.0503 -42.22733,0.13535 -42.71446,0.4125 -1.25341,0.71309 -2.35658,3.66978 -1.83556,4.91964 0.62912,1.50918 3.56494,2.09522 26.60039,5.30993 35.86049,5.0045 42.93448,6.50498 48.24439,10.23324 4.23781,2.9755 5.53241,5.56399 5.53567,11.06831 0.003,5.61417 -2.44788,15.95923 -5.09567,21.50587 -3.39772,7.11762 -9.62562,11.57382 -19.88287,14.22662 -5.8381,1.50989 -6.7601,1.53214 -70.75982,1.7072 l -64.84464,0.17738 z"/>
</svg>