<svg xmlns="http://www.w3.org/2000/svg" viewBox="0 0 1600 900" preserveAspectRatio="xMidYMid slice"><defs><filter id="g" x="0" y="0" width="100%" height="100%"><feTurbulence type="fractalNoise" baseFrequency="0.9" numOctaves="2" stitchTiles="stitch"/><feColorMatrix values="0 0 0 0 0  0 0 0 0 0  0 0 0 0 0  0 0 0 0.25 0"/><feComposite in2="SourceGraphic" operator="in"/></filter></defs><rect width="1600" height="900" fill="#4B9D5C"/><line x1="657.0781893004115" y1="830.051311728395" x2="659.0781893004115" y2="826.051311728395" stroke="#1C4F2A" stroke-width="1"/><line x1="839.0672153635118" y1="782.7743055555555" x2="841.0672153635118" y2="778.7743055555555" stroke="#1C4F2A" stroke-width="1"/><line x1="881.1385459533607" y1="509.29359567901236" x2="883.1385459533607" y2="505.29359567901236" stroke="#1C4F2A" stroke-width="1"/><line x1="32.67489711934156" y1="367.3869598765432" x2="34.67489711934156" y2="363.3869598765432" stroke="#1C4F2A" stroke-width="1"/><line x1="1572.6886145404665" y1="551.4988425925926" x2="1574.6886145404665" y2="547.4988425925926" stroke="#1C4F2A" stroke-width="1"/><line x1="187.599451303155" y1="742.7403549382716" x2="189.599451303155" y2="738.7403549382716" stroke="#1C4F2A" stroke-width="1"/><line x1="815.6790123456791" y1="808.889274691358" x2="817.6790123456791" y2="804.889274691358" stroke="#1C4F2A" stroke-width="1"/><line x1="158.16186556927298" y1="664.3900462962963" x2="160.16186556927298" y2="660.3900462962963" stroke="#1C4F2A" stroke-width="1"/><line x1="1257.0233196159122" y1="550.3537808641975" x2="1259.0233196159122" y2="546.3537808641975" stroke="#1C4F2A" stroke-width="1"/><line x1="339.4238683127572" y1="474.5582561728395" x2="341.4238683127572" y2="470.5582561728395" stroke="#1C4F2A" stroke-width="1"/><line x1="328.82030178326477" y1="701.4479166666666" x2="330.82030178326477" y2="697.4479166666666" stroke="#1C4F2A" stroke-width="1"/><line x1="1422.7434842249656" y1="772.1338734567901" x2="1424.7434842249656" y2="768.1338734567901" stroke="#1C4F2A" stroke-width="1"/><line x1="737.2427983539095" y1="834.3939043209876" x2="739.2427983539095" y2="830.3939043209876" stroke="#1C4F2A" stroke-width="1"/><line x1="1017.9972565157751" y1="872.6724537037037" x2="1019.9972565157751" y2="868.6724537037037" stroke="#1C4F2A" stroke-width="1"/><line x1="1218.0932784636489" y1="358.0806327160494" x2="1220.0932784636489" y2="354.0806327160494" stroke="#1C4F2A" stroke-width="1"/><line x1="942.4691358024692" y1="838.3962191358024" x2="944.4691358024692" y2="834.3962191358024" stroke="#1C4F2A" stroke-width="1"/><line x1="1159.026063100137" y1="758.0636574074074" x2="1161.026063100137" y2="754.0636574074074" stroke="#1C4F2A" stroke-width="1"/><line x1="1176.406035665295" y1="778.1940586419753" x2="1178.406035665295" y2="774.1940586419753" stroke="#1C4F2A" stroke-width="1"/><line x1="1488.4362139917694" y1="696.5652006172838" x2="1490.4362139917694" y2="692.5652006172838" stroke="#1C4F2A" stroke-width="1"/><line x1="1285.2400548696846" y1="567.6215277777777" x2="1287.2400548696846" y2="563.6215277777777" stroke="#1C4F2A" stroke-width="1"/><line x1="231.0150891632373" y1="352.4741512345679" x2="233.0150891632373" y2="348.4741512345679" stroke="#1C4F2A" stroke-width="1"/><line x1="1308.477366255144" y1="618.9008487654321" x2="1310.477366255144" y2="614.9008487654321" stroke="#1C4F2A" stroke-width="1"/><line x1="329.97256515775035" y1="511.3460648148148" x2="331.97256515775035" y2="507.3460648148148" stroke="#1C4F2A" stroke-width="1"/><line x1="515.2537722908094" y1="550.9209104938271" x2="517.2537722908094" y2="546.9209104938271" stroke="#1C4F2A" stroke-width="1"/><line x1="935.9259259259259" y1="815.4031635802469" x2="937.9259259259259" y2="811.4031635802469" stroke="#1C4F2A" stroke-width="1"/><line x1="426.55692729766804" y1="799.2372685185185" x2="428.55692729766804" y2="795.2372685185185" stroke="#1C4F2A" stroke-width="1"/><line x1="962.4554183813442" y1="323.5343364197531" x2="964.4554183813442" y2="319.5343364197531" stroke="#1C4F2A" stroke-width="1"/><line x1="904.1152263374486" y1="866.0721450617283" x2="906.1152263374486" y2="862.0721450617283" stroke="#1C4F2A" stroke-width="1"/><line x1="508.32647462277095" y1="381.2951388888889" x2="510.32647462277095" y2="377.2951388888889" stroke="#1C4F2A" stroke-width="1"/><line x1="505.95336076817557" y1="510.31442901234567" x2="507.95336076817557" y2="506.31442901234567" stroke="#1C4F2A" stroke-width="1"/><line x1="146.37860082304525" y1="350.90779320987656" x2="148.37860082304525" y2="346.90779320987656" stroke="#1C4F2A" stroke-width="1"/><line x1="1108.6145404663923" y1="727.5196759259259" x2="1110.6145404663923" y2="723.5196759259259" stroke="#1C4F2A" stroke-width="1"/><line x1="1279.0809327846364" y1="691.2611882716049" x2="1281.0809327846364" y2="687.2611882716049" stroke="#1C4F2A" stroke-width="1"/><line x1="796.0493827160493" y1="739.9101080246913" x2="798.0493827160493" y2="735.9101080246913" stroke="#1C4F2A" stroke-width="1"/><line x1="1160.7544581618656" y1="787.9108796296297" x2="1162.7544581618656" y2="783.9108796296297" stroke="#1C4F2A" stroke-width="1"/><line x1="615.1714677640604" y1="446.37461419753083" x2="617.1714677640604" y2="442.37461419753083" stroke="#1C4F2A" stroke-width="1"/><line x1="186.46090534979425" y1="353.07908950617286" x2="188.46090534979425" y2="349.07908950617286" stroke="#1C4F2A" stroke-width="1"/><line x1="1198.079561042524" y1="772.46875" x2="1200.079561042524" y2="768.46875" stroke="#1C4F2A" stroke-width="1"/><line x1="647.5582990397805" y1="615.6547067901234" x2="649.5582990397805" y2="611.6547067901234" stroke="#1C4F2A" stroke-width="1"/><line x1="450.94650205761315" y1="660.414737654321" x2="452.94650205761315" y2="656.414737654321" stroke="#1C4F2A" stroke-width="1"/><line x1="153.92318244170096" y1="891.1932870370371" x2="155.92318244170096" y2="887.1932870370371" stroke="#1C4F2A" stroke-width="1"/><line x1="309.5747599451303" y1="779.1014660493827" x2="311.5747599451303" y2="775.1014660493827" stroke="#1C4F2A" stroke-width="1"/><line x1="522.8395061728395" y1="611.9170524691358" x2="524.8395061728395" y2="607.9170524691358" stroke="#1C4F2A" stroke-width="1"/><line x1="161.61865569272976" y1="724.0844907407408" x2="163.61865569272976" y2="720.0844907407408" stroke="#1C4F2A" stroke-width="1"/><line x1="134.55418381344307" y1="516.7148919753087" x2="136.55418381344307" y2="512.7148919753087" stroke="#1C4F2A" stroke-width="1"/><line x1="935.4732510288067" y1="417.58603395061726" x2="937.4732510288067" y2="413.58603395061726" stroke="#1C4F2A" stroke-width="1"/><line x1="154.49931412894375" y1="481.1423611111111" x2="156.49931412894375" y2="477.1423611111111" stroke="#1C4F2A" stroke-width="1"/><line x1="655.8299039780521" y1="668.4949845679012" x2="657.8299039780521" y2="664.4949845679012" stroke="#1C4F2A" stroke-width="1"/><line x1="622.1810699588477" y1="287.4216820987654" x2="624.1810699588477" y2="283.4216820987654" stroke="#1C4F2A" stroke-width="1"/><line x1="665.8984910836763" y1="372.36689814814815" x2="667.8984910836763" y2="368.36689814814815" stroke="#1C4F2A" stroke-width="1"/><line x1="806.7352537722908" y1="814.4417438271604" x2="808.7352537722908" y2="810.4417438271604" stroke="#1C4F2A" stroke-width="1"/><line x1="116.2962962962963" y1="431.42399691358025" x2="118.2962962962963" y2="427.42399691358025" stroke="#1C4F2A" stroke-width="1"/><line x1="629.1495198902606" y1="607.7581018518517" x2="631.1495198902606" y2="603.7581018518517" stroke="#1C4F2A" stroke-width="1"/><line x1="1120.6035665294926" y1="534.5551697530864" x2="1122.6035665294926" y2="530.5551697530864" stroke="#1C4F2A" stroke-width="1"/><line x1="1551.1522633744858" y1="429.5929783950617" x2="1553.1522633744858" y2="425.5929783950617" stroke="#1C4F2A" stroke-width="1"/><line x1="577.5857338820301" y1="767.3159722222222" x2="579.5857338820301" y2="763.3159722222222" stroke="#1C4F2A" stroke-width="1"/><line x1="530.7681755829904" y1="668.835262345679" x2="532.7681755829904" y2="664.835262345679" stroke="#1C4F2A" stroke-width="1"/><line x1="660.0823045267489" y1="491.9286265432099" x2="662.0823045267489" y2="487.9286265432099" stroke="#1C4F2A" stroke-width="1"/><line x1="1044.5404663923182" y1="431.04050925925924" x2="1046.5404663923182" y2="427.04050925925924" stroke="#1C4F2A" stroke-width="1"/><line x1="1170.562414266118" y1="797.2820216049382" x2="1172.562414266118" y2="793.2820216049382" stroke="#1C4F2A" stroke-width="1"/><line x1="1176.4197530864199" y1="828.4309413580247" x2="1178.4197530864199" y2="824.4309413580247" stroke="#1C4F2A" stroke-width="1"/><line x1="963.3470507544581" y1="438.93171296296293" x2="965.3470507544581" y2="434.93171296296293" stroke="#1C4F2A" stroke-width="1"/><line x1="373.3196159122085" y1="499.8954475308642" x2="375.3196159122085" y2="495.8954475308642" stroke="#1C4F2A" stroke-width="1"/><line x1="433.49794238683126" y1="389.0999228395061" x2="435.49794238683126" y2="385.0999228395061" stroke="#1C4F2A" stroke-width="1"/><line x1="867.3388203017832" y1="370.9895833333333" x2="869.3388203017832" y2="366.9895833333333" stroke="#1C4F2A" stroke-width="1"/><line x1="272.3731138545953" y1="616.6755401234568" x2="274.3731138545953" y2="612.6755401234568" stroke="#1C4F2A" stroke-width="1"/><line x1="564.6502057613168" y1="643.9355709876543" x2="566.6502057613168" y2="639.9355709876543" stroke="#1C4F2A" stroke-width="1"/><line x1="1289.849108367627" y1="437.2141203703703" x2="1291.849108367627" y2="433.2141203703703" stroke="#1C4F2A" stroke-width="1"/><line x1="1401.056241426612" y1="727.622299382716" x2="1403.056241426612" y2="723.622299382716" stroke="#1C4F2A" stroke-width="1"/><line x1="503.2098765432099" y1="542.937885802469" x2="505.2098765432099" y2="538.937885802469" stroke="#1C4F2A" stroke-width="1"/><line x1="1164.2112482853224" y1="847.605324074074" x2="1166.2112482853224" y2="843.605324074074" stroke="#1C4F2A" stroke-width="1"/><line x1="1092.7023319615912" y1="412.7357253086419" x2="1094.7023319615912" y2="408.7357253086419" stroke="#1C4F2A" stroke-width="1"/><line x1="782.5102880658436" y1="296.10686728395063" x2="784.5102880658436" y2="292.10686728395063" stroke="#1C4F2A" stroke-width="1"/><line x1="1023.758573388203" y1="552.1631944444443" x2="1025.7585733882029" y2="548.1631944444443" stroke="#1C4F2A" stroke-width="1"/><line x1="1480.6447187928668" y1="512.0158179012346" x2="1482.6447187928668" y2="508.01581790123464" stroke="#1C4F2A" stroke-width="1"/><line x1="335.8847736625514" y1="743.4425154320987" x2="337.8847736625514" y2="739.4425154320987" stroke="#1C4F2A" stroke-width="1"/><line x1="1401.8244170096023" y1="390.88773148148147" x2="1403.8244170096023" y2="386.88773148148147" stroke="#1C4F2A" stroke-width="1"/><line x1="1498.2167352537722" y1="605.4625771604938" x2="1500.2167352537722" y2="601.4625771604938" stroke="#1C4F2A" stroke-width="1"/><line x1="1296.6666666666667" y1="834.9448302469135" x2="1298.6666666666667" y2="830.9448302469135" stroke="#1C4F2A" stroke-width="1"/><line x1="1231.7421124828534" y1="573.7789351851852" x2="1233.7421124828534" y2="569.7789351851852" stroke="#1C4F2A" stroke-width="1"/><line x1="78.7517146776406" y1="273.07600308641975" x2="80.7517146776406" y2="269.07600308641975" stroke="#1C4F2A" stroke-width="1"/><line x1="998.1893004115227" y1="780.613811728395" x2="1000.1893004115227" y2="776.613811728395" stroke="#1C4F2A" stroke-width="1"/><line x1="1046.8449931412895" y1="680.8368055555557" x2="1048.8449931412895" y2="676.8368055555557" stroke="#1C4F2A" stroke-width="1"/><line x1="955.5829903978052" y1="354.85609567901236" x2="957.5829903978052" y2="350.85609567901236" stroke="#1C4F2A" stroke-width="1"/><line x1="1573.7860082304528" y1="790.4494598765432" x2="1575.7860082304528" y2="786.4494598765432" stroke="#1C4F2A" stroke-width="1"/><line x1="1380.4663923182443" y1="292.0613425925926" x2="1382.4663923182443" y2="288.0613425925926" stroke="#1C4F2A" stroke-width="1"/><line x1="1462.0438957475994" y1="430.8028549382716" x2="1464.0438957475994" y2="426.8028549382716" stroke="#1C4F2A" stroke-width="1"/><line x1="356.7901234567901" y1="444.451774691358" x2="358.7901234567901" y2="440.451774691358" stroke="#1C4F2A" stroke-width="1"/><line x1="1165.9396433470506" y1="877.4525462962963" x2="1167.9396433470506" y2="873.4525462962963" stroke="#1C4F2A" stroke-width="1"/><line x1="531.4677640603567" y1="710.9162808641975" x2="533.4677640603567" y2="706.9162808641975" stroke="#1C4F2A" stroke-width="1"/><line x1="1080.5349794238684" y1="582.6207561728395" x2="1082.5349794238684" y2="578.6207561728395" stroke="#1C4F2A" stroke-width="1"/><line x1="936.5980795610426" y1="757.0104166666666" x2="938.5980795610426" y2="753.0104166666666" stroke="#1C4F2A" stroke-width="1"/><line x1="297.18792866941016" y1="775.1963734567901" x2="299.18792866941016" y2="771.1963734567901" stroke="#1C4F2A" stroke-width="1"/><line x1="1078.3539094650205" y1="784.9564043209876" x2="1080.3539094650205" y2="780.9564043209876" stroke="#1C4F2A" stroke-width="1"/><line x1="1225.7750342935528" y1="770.7349537037037" x2="1227.7750342935528" y2="766.7349537037037" stroke="#1C4F2A" stroke-width="1"/><line x1="1292.5377229080932" y1="833.6431327160494" x2="1294.5377229080932" y2="829.6431327160494" stroke="#1C4F2A" stroke-width="1"/><line x1="883.5802469135804" y1="631.4587191358024" x2="885.5802469135804" y2="627.4587191358024" stroke="#1C4F2A" stroke-width="1"/><line x1="966.803840877915" y1="498.6261574074074" x2="968.803840877915" y2="494.6261574074074" stroke="#1C4F2A" stroke-width="1"/><line x1="850.8504801097394" y1="466.2565586419753" x2="852.8504801097394" y2="462.2565586419753" stroke="#1C4F2A" stroke-width="1"/><line x1="1029.5473251028807" y1="332.12770061728395" x2="1031.5473251028807" y2="328.12770061728395" stroke="#1C4F2A" stroke-width="1"/><line x1="693.0178326474623" y1="780.6840277777778" x2="695.0178326474623" y2="776.6840277777778" stroke="#1C4F2A" stroke-width="1"/><line x1="1105.4595336076818" y1="513.0366512345679" x2="1107.4595336076818" y2="509.0366512345679" stroke="#1C4F2A" stroke-width="1"/><line x1="449.5884773662551" y1="726.9633487654321" x2="451.5884773662551" y2="722.9633487654321" stroke="#1C4F2A" stroke-width="1"/><line x1="937.7503429355281" y1="566.9085648148148" x2="939.7503429355281" y2="562.9085648148148" stroke="#1C4F2A" stroke-width="1"/><line x1="989.6982167352538" y1="553.9834104938271" x2="991.6982167352538" y2="549.9834104938271" stroke="#1C4F2A" stroke-width="1"/><line x1="1277.037037037037" y1="765.9656635802469" x2="1279.037037037037" y2="761.9656635802469" stroke="#1C4F2A" stroke-width="1"/><line x1="634.3347050754458" y1="697.2997685185185" x2="636.3347050754458" y2="693.2997685185185" stroke="#1C4F2A" stroke-width="1"/><line x1="1036.899862825789" y1="799.096836419753" x2="1038.899862825789" y2="795.096836419753" stroke="#1C4F2A" stroke-width="1"/><line x1="845.2263374485597" y1="659.1346450617284" x2="847.2263374485597" y2="655.1346450617284" stroke="#1C4F2A" stroke-width="1"/><line x1="316.1042524005487" y1="751.8576388888889" x2="318.1042524005487" y2="747.8576388888889" stroke="#1C4F2A" stroke-width="1"/><line x1="180.39780521262003" y1="828.3769290123457" x2="182.39780521262003" y2="824.3769290123457" stroke="#1C4F2A" stroke-width="1"/><line x1="1287.4897119341563" y1="616.4702932098764" x2="1289.4897119341563" y2="612.4702932098764" stroke="#1C4F2A" stroke-width="1"/><line x1="516.3923182441702" y1="310.5821759259259" x2="518.3923182441702" y2="306.5821759259259" stroke="#1C4F2A" stroke-width="1"/><line x1="553.525377229081" y1="851.8236882716049" x2="555.525377229081" y2="847.8236882716049" stroke="#1C4F2A" stroke-width="1"/><line x1="1537.1604938271605" y1="847.9726080246913" x2="1539.1604938271605" y2="843.9726080246913" stroke="#1C4F2A" stroke-width="1"/><line x1="168.53223593964336" y1="843.4733796296296" x2="170.53223593964336" y2="839.4733796296296" stroke="#1C4F2A" stroke-width="1"/><line x1="1089.6159122085048" y1="449.43711419753083" x2="1091.6159122085048" y2="445.43711419753083" stroke="#1C4F2A" stroke-width="1"/><line x1="527.5720164609053" y1="303.64158950617286" x2="529.5720164609053" y2="299.64158950617286" stroke="#1C4F2A" stroke-width="1"/><line x1="1405.8573388203017" y1="670.53125" x2="1407.8573388203017" y2="666.53125" stroke="#1C4F2A" stroke-width="1"/><line x1="722.0027434842249" y1="461.21720679012344" x2="724.0027434842249" y2="457.21720679012344" stroke="#1C4F2A" stroke-width="1"/><line x1="392.0576131687243" y1="453.47723765432096" x2="394.0576131687243" y2="449.47723765432096" stroke="#1C4F2A" stroke-width="1"/><line x1="1561.7009602194787" y1="631.7557870370371" x2="1563.7009602194787" y2="627.7557870370371" stroke="#1C4F2A" stroke-width="1"/><line x1="1584.0192043895747" y1="467.16396604938274" x2="1586.0192043895747" y2="463.16396604938274" stroke="#1C4F2A" stroke-width="1"/><line x1="63.95061728395062" y1="877.4795524691358" x2="65.95061728395062" y2="873.4795524691358" stroke="#1C4F2A" stroke-width="1"/><line x1="1169.3964334705076" y1="307.14699074074076" x2="1171.3964334705076" y2="303.14699074074076" stroke="#1C4F2A" stroke-width="1"/><line x1="1008.9986282578875" y1="677.2773919753085" x2="1010.9986282578875" y2="673.2773919753085" stroke="#1C4F2A" stroke-width="1"/><line x1="76.5843621399177" y1="525.6485339506172" x2="78.5843621399177" y2="521.6485339506172" stroke="#1C4F2A" stroke-width="1"/><line x1="762.2770919067216" y1="536.7048611111111" x2="764.2770919067216" y2="532.7048611111111" stroke="#1C4F2A" stroke-width="1"/><line x1="1130.2743484224966" y1="671.5574845679012" x2="1132.2743484224966" y2="667.5574845679012" stroke="#1C4F2A" stroke-width="1"/><line x1="963.2921810699589" y1="867.9841820987654" x2="965.2921810699589" y2="863.9841820987654" stroke="#1C4F2A" stroke-width="1"/><line x1="873.676268861454" y1="270.42939814814815" x2="875.676268861454" y2="266.42939814814815" stroke="#1C4F2A" stroke-width="1"/><line x1="881.1796982167353" y1="660.0042438271605" x2="883.1796982167353" y2="656.0042438271605" stroke="#1C4F2A" stroke-width="1"/><line x1="57.407407407407405" y1="854.4864969135803" x2="59.407407407407405" y2="850.4864969135803" stroke="#1C4F2A" stroke-width="1"/><line x1="436.9272976680384" y1="348.32060185185185" x2="438.9272976680384" y2="344.32060185185185" stroke="#1C4F2A" stroke-width="1"/><line x1="795.0480109739369" y1="852.6176697530864" x2="797.0480109739369" y2="848.6176697530864" stroke="#1C4F2A" stroke-width="1"/><line x1="1092.2633744855966" y1="695.1554783950617" x2="1094.2633744855966" y2="691.1554783950617" stroke="#1C4F2A" stroke-width="1"/><line x1="1585.363511659808" y1="350.37847222222223" x2="1587.363511659808" y2="346.37847222222223" stroke="#1C4F2A" stroke-width="1"/><line x1="1405.2126200274347" y1="829.397762345679" x2="1407.2126200274347" y2="825.397762345679" stroke="#1C4F2A" stroke-width="1"/><line x1="1401.1934156378602" y1="599.9911265432099" x2="1403.1934156378602" y2="595.9911265432099" stroke="#1C4F2A" stroke-width="1"/><line x1="52.318244170096015" y1="486.60300925925924" x2="54.318244170096015" y2="482.60300925925924" stroke="#1C4F2A" stroke-width="1"/><line x1="45.00685871056241" y1="800.3445216049382" x2="47.00685871056241" y2="796.3445216049382" stroke="#1C4F2A" stroke-width="1"/><line x1="1517.5308641975307" y1="778.9934413580247" x2="1519.5308641975307" y2="774.9934413580247" stroke="#1C4F2A" stroke-width="1"/><line x1="1171.1248285322358" y1="336.99421296296293" x2="1173.1248285322358" y2="332.99421296296293" stroke="#1C4F2A" stroke-width="1"/><line x1="447.7640603566529" y1="345.4579475308642" x2="449.7640603566529" y2="341.4579475308642" stroke="#1C4F2A" stroke-width="1"/><line x1="374.6090534979424" y1="812.1624228395061" x2="376.6090534979424" y2="808.1624228395061" stroke="#1C4F2A" stroke-width="1"/><line x1="675.1165980795611" y1="741.5520833333333" x2="677.1165980795611" y2="737.5520833333333" stroke="#1C4F2A" stroke-width="1"/><line x1="1546.8175582990398" y1="304.7380401234568" x2="1548.8175582990398" y2="300.7380401234568" stroke="#1C4F2A" stroke-width="1"/><line x1="105.76131687242798" y1="279.49807098765433" x2="107.76131687242798" y2="275.49807098765433" stroke="#1C4F2A" stroke-width="1"/><line x1="697.6268861454047" y1="650.2766203703703" x2="699.6268861454047" y2="646.2766203703703" stroke="#1C4F2A" stroke-width="1"/><line x1="675.5006858710562" y1="888.184799382716" x2="677.5006858710562" y2="884.184799382716" stroke="#1C4F2A" stroke-width="1"/><line x1="1244.320987654321" y1="651.000385802469" x2="1246.320987654321" y2="647.000385802469" stroke="#1C4F2A" stroke-width="1"/><line x1="171.98902606310014" y1="273.1678240740741" x2="173.98902606310014" y2="269.1678240740741" stroke="#1C4F2A" stroke-width="1"/><line x1="1567.1467764060355" y1="415.7982253086419" x2="1569.1467764060355" y2="411.7982253086419" stroke="#1C4F2A" stroke-width="1"/><line x1="1123.6213991769548" y1="876.6693672839506" x2="1125.6213991769548" y2="872.6693672839506" stroke="#1C4F2A" stroke-width="1"/><line x1="1231.5363511659807" y1="450.22569444444446" x2="1233.5363511659807" y2="446.22569444444446" stroke="#1C4F2A" stroke-width="1"/><line x1="1555.0891632373114" y1="357.5783179012346" x2="1557.0891632373114" y2="353.5783179012346" stroke="#1C4F2A" stroke-width="1"/><line x1="276.99588477366257" y1="536.5050154320987" x2="278.99588477366257" y2="532.5050154320987" stroke="#1C4F2A" stroke-width="1"/><line x1="1209.6021947873799" y1="761.4502314814814" x2="1211.6021947873799" y2="757.4502314814814" stroke="#1C4F2A" stroke-width="1"/><line x1="1172.6611796982168" y1="293.5250771604938" x2="1174.6611796982168" y2="289.5250771604938" stroke="#1C4F2A" stroke-width="1"/><line x1="837.7777777777778" y1="470.50733024691357" x2="839.7777777777778" y2="466.50733024691357" stroke="#1C4F2A" stroke-width="1"/><line x1="639.519890260631" y1="786.8414351851851" x2="641.519890260631" y2="782.8414351851851" stroke="#1C4F2A" stroke-width="1"/><line x1="953.1961591220851" y1="433.63850308641975" x2="955.1961591220851" y2="429.63850308641975" stroke="#1C4F2A" stroke-width="1"/><line x1="139.30041152263374" y1="888.676311728395" x2="141.30041152263374" y2="884.676311728395" stroke="#1C4F2A" stroke-width="1"/><line x1="54.62277091906722" y1="736.3993055555554" x2="56.62277091906722" y2="732.3993055555554" stroke="#1C4F2A" stroke-width="1"/><line x1="1430.0274348422497" y1="357.91859567901236" x2="1432.0274348422497" y2="353.91859567901236" stroke="#1C4F2A" stroke-width="1"/><line x1="314.8971193415638" y1="741.0119598765432" x2="316.8971193415638" y2="737.0119598765432" stroke="#1C4F2A" stroke-width="1"/><line x1="1588.244170096022" y1="820.1238425925925" x2="1590.244170096022" y2="816.1238425925925" stroke="#1C4F2A" stroke-width="1"/><line x1="1536.488340192044" y1="276.3653549382716" x2="1538.488340192044" y2="272.3653549382716" stroke="#1C4F2A" stroke-width="1"/><line x1="297.90123456790127" y1="867.514274691358" x2="299.90123456790127" y2="863.514274691358" stroke="#1C4F2A" stroke-width="1"/><line x1="973.7174211248285" y1="618.0150462962963" x2="975.7174211248285" y2="614.0150462962963" stroke="#1C4F2A" stroke-width="1"/><line x1="205.91220850480107" y1="398.9787808641975" x2="207.91220850480107" y2="394.9787808641975" stroke="#1C4F2A" stroke-width="1"/><line x1="621.6460905349794" y1="848.1832561728395" x2="623.6460905349794" y2="844.1832561728395" stroke="#1C4F2A" stroke-width="1"/><line x1="344.3758573388203" y1="340.0729166666667" x2="346.3758573388203" y2="336.0729166666667" stroke="#1C4F2A" stroke-width="1"/><line x1="1171.6323731138546" y1="305.7588734567901" x2="1173.6323731138546" y2="301.7588734567901" stroke="#1C4F2A" stroke-width="1"/><line x1="219.4650205761317" y1="893.0189043209876" x2="221.4650205761317" y2="889.0189043209876" stroke="#1C4F2A" stroke-width="1"/><line x1="233.5528120713306" y1="826.2974537037037" x2="235.5528120713306" y2="822.2974537037037" stroke="#1C4F2A" stroke-width="1"/><line x1="166.98216735253772" y1="836.7056327160494" x2="168.98216735253772" y2="832.7056327160494" stroke="#1C4F2A" stroke-width="1"/><line x1="1224.6913580246912" y1="582.0212191358024" x2="1226.6913580246912" y2="578.0212191358024" stroke="#1C4F2A" stroke-width="1"/><line x1="1174.5816186556929" y1="396.6886574074074" x2="1176.5816186556929" y2="392.6886574074074" stroke="#1C4F2A" stroke-width="1"/><line x1="925.2949245541838" y1="311.8190586419753" x2="927.2949245541838" y2="307.8190586419753" stroke="#1C4F2A" stroke-width="1"/><line x1="970.6584362139918" y1="755.1902006172838" x2="972.6584362139918" y2="751.1902006172838" stroke="#1C4F2A" stroke-width="1"/><line x1="500.79561042524006" y1="521.2465277777778" x2="502.79561042524006" y2="517.2465277777778" stroke="#1C4F2A" stroke-width="1"/><line x1="779.9039780521263" y1="831.0991512345678" x2="781.9039780521263" y2="827.0991512345678" stroke="#1C4F2A" stroke-width="1"/><line x1="1590.6995884773662" y1="362.5258487654321" x2="1592.6995884773662" y2="358.5258487654321" stroke="#1C4F2A" stroke-width="1"/><line x1="345.5281207133059" y1="779.9710648148148" x2="347.5281207133059" y2="775.9710648148148" stroke="#1C4F2A" stroke-width="1"/><line x1="264.1426611796982" y1="714.5459104938271" x2="266.1426611796982" y2="710.5459104938271" stroke="#1C4F2A" stroke-width="1"/><line x1="418.1481481481481" y1="874.0281635802469" x2="420.1481481481481" y2="870.0281635802469" stroke="#1C4F2A" stroke-width="1"/><line x1="1242.1124828532236" y1="752.8622685185185" x2="1244.1124828532236" y2="748.8622685185185" stroke="#1C4F2A" stroke-width="1"/><line x1="1511.3443072702332" y1="802.159336419753" x2="1513.3443072702332" y2="798.159336419753" stroke="#1C4F2A" stroke-width="1"/><line x1="1186.3374485596707" y1="609.6971450617284" x2="1188.3374485596707" y2="605.6971450617284" stroke="#1C4F2A" stroke-width="1"/><line x1="523.8820301783264" y1="649.9201388888889" x2="525.8820301783264" y2="645.9201388888889" stroke="#1C4F2A" stroke-width="1"/><line x1="254.84224965706446" y1="673.9394290123457" x2="256.8422496570645" y2="669.9394290123457" stroke="#1C4F2A" stroke-width="1"/><line x1="1228.6008230452674" y1="409.53279320987656" x2="1230.6008230452674" y2="405.53279320987656" stroke="#1C4F2A" stroke-width="1"/><line x1="324.17009602194787" y1="681.1446759259259" x2="326.17009602194787" y2="677.1446759259259" stroke="#1C4F2A" stroke-width="1"/><line x1="227.9698216735254" y1="539.8861882716049" x2="229.9698216735254" y2="535.8861882716049" stroke="#1C4F2A" stroke-width="1"/><line x1="1078.2716049382716" y1="483.53510802469134" x2="1080.2716049382716" y2="479.53510802469134" stroke="#1C4F2A" stroke-width="1"/><line x1="1176.310013717421" y1="426.5358796296296" x2="1178.310013717421" y2="422.5358796296296" stroke="#1C4F2A" stroke-width="1"/><line x1="364.0603566529492" y1="609.999614197531" x2="366.0603566529492" y2="605.999614197531" stroke="#1C4F2A" stroke-width="1"/><line x1="1268.6831275720165" y1="411.70408950617286" x2="1270.6831275720165" y2="407.70408950617286" stroke="#1C4F2A" stroke-width="1"/><line x1="413.63511659807955" y1="726.09375" x2="415.63511659807955" y2="722.09375" stroke="#1C4F2A" stroke-width="1"/><line x1="1196.4471879286696" y1="464.27970679012344" x2="1198.4471879286696" y2="460.27970679012344" stroke="#1C4F2A" stroke-width="1"/><line x1="733.1687242798354" y1="404.039737654321" x2="735.1687242798354" y2="400.039737654321" stroke="#1C4F2A" stroke-width="1"/><line x1="169.47873799725653" y1="529.818287037037" x2="171.47873799725653" y2="525.818287037037" stroke="#1C4F2A" stroke-width="1"/><line x1="58.463648834019196" y1="312.7264660493827" x2="60.463648834019196" y2="308.7264660493827" stroke="#1C4F2A" stroke-width="1"/><line x1="5.061728395061729" y1="670.5420524691358" x2="7.061728395061729" y2="666.5420524691358" stroke="#1C4F2A" stroke-width="1"/><line x1="977.1742112482852" y1="677.7094907407408" x2="979.1742112482852" y2="673.7094907407408" stroke="#1C4F2A" stroke-width="1"/><line x1="683.443072702332" y1="365.33989197530866" x2="685.443072702332" y2="361.33989197530866" stroke="#1C4F2A" stroke-width="1"/><line x1="1217.6954732510287" y1="791.2110339506173" x2="1219.6954732510287" y2="787.2110339506173" stroke="#1C4F2A" stroke-width="1"/><line x1="170.05486968449932" y1="749.7673611111111" x2="172.05486968449932" y2="745.7673611111111" stroke="#1C4F2A" stroke-width="1"/><line x1="404.718792866941" y1="832.1199845679012" x2="406.718792866941" y2="828.1199845679012" stroke="#1C4F2A" stroke-width="1"/><line x1="104.40329218106996" y1="346.0466820987654" x2="106.40329218106996" y2="342.0466820987654" stroke="#1C4F2A" stroke-width="1"/><line x1="1481.4540466392318" y1="325.99189814814815" x2="1483.4540466392318" y2="321.99189814814815" stroke="#1C4F2A" stroke-width="1"/><line x1="1355.6241426611796" y1="663.0667438271605" x2="1357.6241426611796" y2="659.0667438271605" stroke="#1C4F2A" stroke-width="1"/><line x1="398.51851851851853" y1="805.0489969135803" x2="400.51851851851853" y2="801.0489969135803" stroke="#1C4F2A" stroke-width="1"/><line x1="644.7050754458162" y1="876.3831018518517" x2="646.7050754458162" y2="872.3831018518517" stroke="#1C4F2A" stroke-width="1"/><line x1="869.4924554183814" y1="698.1801697530864" x2="871.4924554183814" y2="694.1801697530864" stroke="#1C4F2A" stroke-width="1"/><line x1="1033.3744855967077" y1="488.2179783950617" x2="1035.3744855967077" y2="484.2179783950617" stroke="#1C4F2A" stroke-width="1"/><line x1="1393.1412894375858" y1="720.9409722222222" x2="1395.1412894375858" y2="716.9409722222222" stroke="#1C4F2A" stroke-width="1"/><line x1="1079.6570644718793" y1="517.460262345679" x2="1081.6570644718793" y2="513.460262345679" stroke="#1C4F2A" stroke-width="1"/><line x1="942.3045267489713" y1="865.5536265432098" x2="944.3045267489713" y2="861.5536265432098" stroke="#1C4F2A" stroke-width="1"/><line x1="1060.0960219478739" y1="699.6655092592591" x2="1062.0960219478739" y2="695.6655092592591" stroke="#1C4F2A" stroke-width="1"/><line x1="919.4513031550068" y1="330.9070216049383" x2="921.4513031550068" y2="326.9070216049383" stroke="#1C4F2A" stroke-width="1"/><line x1="658.641975308642" y1="887.0559413580247" x2="660.641975308642" y2="883.0559413580247" stroke="#1C4F2A" stroke-width="1"/><line x1="178.9026063100137" y1="392.55671296296293" x2="180.9026063100137" y2="388.55671296296293" stroke="#1C4F2A" stroke-width="1"/><line x1="922.2085048010974" y1="348.5204475308642" x2="924.2085048010974" y2="344.5204475308642" stroke="#1C4F2A" stroke-width="1"/><line x1="715.7201646090534" y1="762.7249228395061" x2="717.7201646090534" y2="758.7249228395061" stroke="#1C4F2A" stroke-width="1"/><line x1="882.8943758573388" y1="639.6145833333333" x2="884.8943758573388" y2="635.6145833333333" stroke="#1C4F2A" stroke-width="1"/><line x1="21.262002743484228" y1="780.3005401234568" x2="23.262002743484228" y2="776.3005401234568" stroke="#1C4F2A" stroke-width="1"/><line x1="46.8724279835391" y1="702.5605709876543" x2="48.8724279835391" y2="698.5605709876543" stroke="#1C4F2A" stroke-width="1"/><line x1="505.40466392318245" y1="390.8391203703703" x2="507.40466392318245" y2="386.8391203703703" stroke="#1C4F2A" stroke-width="1"/><line x1="349.9451303155007" y1="576.2472993827159" x2="351.9451303155007" y2="572.2472993827159" stroke="#1C4F2A" stroke-width="1"/><line x1="785.4320987654321" y1="286.5628858024691" x2="787.4320987654321" y2="282.5628858024691" stroke="#1C4F2A" stroke-width="1"/><line x1="1179.766803840878" y1="486.230324074074" x2="1181.766803840878" y2="482.230324074074" stroke="#1C4F2A" stroke-width="1"/><line x1="841.5912208504801" y1="576.360725308642" x2="843.5912208504801" y2="572.360725308642" stroke="#1C4F2A" stroke-width="1"/><line x1="264.73251028806584" y1="354.73186728395063" x2="266.73251028806584" y2="350.73186728395063" stroke="#1C4F2A" stroke-width="1"/><line x1="239.3141289437586" y1="505.78819444444446" x2="241.3141289437586" y2="501.78819444444446" stroke="#1C4F2A" stroke-width="1"/><line x1="429.5336076817558" y1="360.6408179012345" x2="431.5336076817558" y2="356.6408179012345" stroke="#1C4F2A" stroke-width="1"/><line x1="618.1069958847736" y1="487.06751543209873" x2="620.1069958847736" y2="483.06751543209873" stroke="#1C4F2A" stroke-width="1"/><line x1="1417.3799725651577" y1="659.5127314814815" x2="1419.3799725651577" y2="655.5127314814815" stroke="#1C4F2A" stroke-width="1"/><line x1="1247.105624142661" y1="769.0875771604938" x2="1249.105624142661" y2="765.0875771604938" stroke="#1C4F2A" stroke-width="1"/><line x1="778.8888888888889" y1="893.5698302469135" x2="780.8888888888889" y2="889.5698302469135" stroke="#1C4F2A" stroke-width="1"/><line x1="447.2976680384088" y1="527.4039351851852" x2="449.2976680384088" y2="523.4039351851852" stroke="#1C4F2A" stroke-width="1"/><line x1="627.6406035665295" y1="751.7010030864197" x2="629.6406035665295" y2="747.7010030864197" stroke="#1C4F2A" stroke-width="1"/><line x1="1280.4115226337449" y1="524.238811728395" x2="1282.4115226337449" y2="520.238811728395" stroke="#1C4F2A" stroke-width="1"/><line x1="1062.400548696845" y1="319.46180555555554" x2="1064.400548696845" y2="315.46180555555554" stroke="#1C4F2A" stroke-width="1"/><line x1="704.471879286694" y1="518.4810956790122" x2="706.471879286694" y2="514.4810956790122" stroke="#1C4F2A" stroke-width="1"/><line x1="1056.0082304526748" y1="849.0744598765432" x2="1058.0082304526748" y2="845.0744598765432" stroke="#1C4F2A" stroke-width="1"/><line x1="596.0219478737997" y1="875.6863425925925" x2="598.0219478737997" y2="871.6863425925925" stroke="#1C4F2A" stroke-width="1"/><line x1="410.93278463648835" y1="279.4278549382716" x2="412.93278463648835" y2="275.4278549382716" stroke="#1C4F2A" stroke-width="1"/><line x1="639.0123456790124" y1="818.0767746913581" x2="641.0123456790124" y2="814.0767746913581" stroke="#1C4F2A" stroke-width="1"/><line x1="1181.4951989026063" y1="516.0775462962963" x2="1183.4951989026063" y2="512.0775462962963" stroke="#1C4F2A" stroke-width="1"/><line x1="280.35665294924553" y1="874.5412808641975" x2="282.35665294924553" y2="870.5412808641975" stroke="#1C4F2A" stroke-width="1"/><line x1="562.7572016460905" y1="641.2457561728395" x2="564.7572016460905" y2="637.2457561728395" stroke="#1C4F2A" stroke-width="1"/><line x1="152.15363511659808" y1="710.6354166666667" x2="154.15363511659808" y2="706.6354166666667" stroke="#1C4F2A" stroke-width="1"/><line x1="846.076817558299" y1="623.8213734567901" x2="848.076817558299" y2="619.8213734567901" stroke="#1C4F2A" stroke-width="1"/><line x1="1360.5761316872429" y1="528.5814043209876" x2="1362.5761316872429" y2="524.5814043209876" stroke="#1C4F2A" stroke-width="1"/><line x1="1241.3305898491083" y1="409.3599537037037" x2="1243.3305898491083" y2="405.3599537037037" stroke="#1C4F2A" stroke-width="1"/><line x1="1041.4266117969821" y1="367.26813271604937" x2="1043.4266117969821" y2="363.26813271604937" stroke="#1C4F2A" stroke-width="1"/><line x1="365.8024691358025" y1="690.0837191358024" x2="367.8024691358025" y2="686.0837191358024" stroke="#1C4F2A" stroke-width="1"/><line x1="182.3593964334705" y1="452.2511574074074" x2="184.3593964334705" y2="448.2511574074074" stroke="#1C4F2A" stroke-width="1"/><line x1="1399.7393689986282" y1="314.8815586419753" x2="1401.7393689986282" y2="310.8815586419753" stroke="#1C4F2A" stroke-width="1"/><line x1="1311.7695473251028" y1="705.7527006172841" x2="1313.7695473251028" y2="701.7527006172841" stroke="#1C4F2A" stroke-width="1"/><line x1="708.5733882030178" y1="419.30902777777777" x2="710.5733882030178" y2="415.30902777777777" stroke="#1C4F2A" stroke-width="1"/><line x1="854.3484224965706" y1="676.6616512345679" x2="856.3484224965706" y2="672.6616512345679" stroke="#1C4F2A" stroke-width="1"/><line x1="1531.8106995884773" y1="785.5883487654321" x2="1533.8106995884773" y2="781.5883487654321" stroke="#1C4F2A" stroke-width="1"/><line x1="153.30589849108367" y1="520.5335648148148" x2="155.30589849108367" y2="516.5335648148148" stroke="#1C4F2A" stroke-width="1"/><line x1="1538.5871056241426" y1="402.60841049382714" x2="1540.5871056241426" y2="398.60841049382714" stroke="#1C4F2A" stroke-width="1"/><line x1="1559.2592592592594" y1="509.5906635802469" x2="1561.2592592592594" y2="505.5906635802469" stroke="#1C4F2A" stroke-width="1"/><line x1="649.8902606310014" y1="335.9247685185185" x2="651.8902606310014" y2="331.9247685185185" stroke="#1C4F2A" stroke-width="1"/><line x1="785.7887517146777" y1="332.72183641975306" x2="787.7887517146777" y2="328.72183641975306" stroke="#1C4F2A" stroke-width="1"/><line x1="327.4485596707819" y1="717.7596450617284" x2="329.4485596707819" y2="713.7596450617284" stroke="#1C4F2A" stroke-width="1"/><line x1="1131.6598079561043" y1="705.4826388888889" x2="1133.6598079561043" y2="701.4826388888889" stroke="#1C4F2A" stroke-width="1"/><line x1="729.2866941015089" y1="677.0019290123456" x2="731.2866941015089" y2="673.0019290123456" stroke="#1C4F2A" stroke-width="1"/><line x1="1569.7119341563787" y1="360.09529320987656" x2="1571.7119341563787" y2="356.09529320987656" stroke="#1C4F2A" stroke-width="1"/><line x1="531.9478737997256" y1="579.2071759259259" x2="533.9478737997256" y2="575.2071759259259" stroke="#1C4F2A" stroke-width="1"/><line x1="302.4142661179698" y1="385.44868827160496" x2="304.4142661179698" y2="381.44868827160496" stroke="#1C4F2A" stroke-width="1"/><line x1="1019.3827160493827" y1="276.59760802469134" x2="1021.3827160493827" y2="272.59760802469134" stroke="#1C4F2A" stroke-width="1"/><line x1="984.0877914951989" y1="797.0983796296297" x2="986.0877914951989" y2="793.0983796296297" stroke="#1C4F2A" stroke-width="1"/><line x1="38.504801097393695" y1="298.06211419753083" x2="40.504801097393695" y2="294.06211419753083" stroke="#1C4F2A" stroke-width="1"/><line x1="809.7942386831276" y1="677.2665895061729" x2="811.7942386831276" y2="673.2665895061729" stroke="#1C4F2A" stroke-width="1"/><line x1="1421.4128943758574" y1="309.15625" x2="1423.4128943758574" y2="305.15625" stroke="#1C4F2A" stroke-width="1"/><line x1="470.8916323731138" y1="624.8422067901234" x2="472.8916323731138" y2="620.8422067901234" stroke="#1C4F2A" stroke-width="1"/><line x1="1474.2798353909466" y1="512.102237654321" x2="1476.2798353909466" y2="508.102237654321" stroke="#1C4F2A" stroke-width="1"/><line x1="777.2565157750342" y1="585.380787037037" x2="779.2565157750342" y2="581.380787037037" stroke="#1C4F2A" stroke-width="1"/><line x1="532.9080932784636" y1="315.78896604938274" x2="534.9080932784636" y2="311.78896604938274" stroke="#1C4F2A" stroke-width="1"/><line x1="346.17283950617286" y1="621.1045524691358" x2="348.17283950617286" y2="617.1045524691358" stroke="#1C4F2A" stroke-width="1"/><line x1="1184.951989026063" y1="575.7719907407406" x2="1186.951989026063" y2="571.7719907407406" stroke="#1C4F2A" stroke-width="1"/><line x1="757.8875171467764" y1="840.9023919753087" x2="759.8875171467764" y2="836.9023919753087" stroke="#1C4F2A" stroke-width="1"/><line x1="1158.8065843621398" y1="584.2735339506173" x2="1160.8065843621398" y2="580.2735339506173" stroke="#1C4F2A" stroke-width="1"/><line x1="1577.832647462277" y1="490.3298611111111" x2="1579.832647462277" y2="486.3298611111111" stroke="#1C4F2A" stroke-width="1"/><line x1="79.16323731138546" y1="520.1824845679012" x2="81.16323731138546" y2="516.1824845679012" stroke="#1C4F2A" stroke-width="1"/><line x1="1245.514403292181" y1="611.6091820987654" x2="1247.514403292181" y2="607.6091820987654" stroke="#1C4F2A" stroke-width="1"/><line x1="889.2318244170095" y1="539.0543981481482" x2="891.2318244170095" y2="535.0543981481482" stroke="#1C4F2A" stroke-width="1"/><line x1="630.0685871056241" y1="823.6292438271604" x2="632.0685871056241" y2="819.6292438271604" stroke="#1C4F2A" stroke-width="1"/><line x1="1139.6296296296296" y1="283.11149691358025" x2="1141.6296296296296" y2="279.11149691358025" stroke="#1C4F2A" stroke-width="1"/><line x1="1252.482853223594" y1="301.94560185185185" x2="1254.482853223594" y2="297.94560185185185" stroke="#1C4F2A" stroke-width="1"/><line x1="1343.9368998628258" y1="701.2426697530864" x2="1345.9368998628258" y2="697.2426697530864" stroke="#1C4F2A" stroke-width="1"/><line x1="1374.485596707819" y1="438.7804783950617" x2="1376.485596707819" y2="434.7804783950617" stroke="#1C4F2A" stroke-width="1"/><line x1="0.9190672153635118" y1="619.0034722222222" x2="2.919067215363512" y2="615.0034722222222" stroke="#1C4F2A" stroke-width="1"/><line x1="1154.1015089163236" y1="363.022762345679" x2="1156.1015089163236" y2="359.022762345679" stroke="#1C4F2A" stroke-width="1"/><ellipse cx="960" cy="540" rx="22" ry="6" fill="#14110F"/><rect x="958.5" y="90" width="3" height="450" fill="#14110F"/><polygon points="961.5,90 961.5,162 1152,126.00000000000001" fill="#C8412B"/><rect width="1600" height="900" fill="#14110F" filter="url(#g)" opacity="0.3"/></svg>