<svg xmlns="http://www.w3.org/2000/svg" viewBox="0 0 1600 900" preserveAspectRatio="xMidYMid slice"><defs><filter id="g" x="0" y="0" width="100%" height="100%"><feTurbulence type="fractalNoise" baseFrequency="0.9" numOctaves="2" stitchTiles="stitch"/><feColorMatrix values="0 0 0 0 0  0 0 0 0 0  0 0 0 0 0  0 0 0 0.3 0"/><feComposite in2="SourceGraphic" operator="in"/></filter></defs><rect width="1600" height="900" fill="#C8412B"/><rect x="640" y="0" width="40" height="40" fill="#F3E9DC"/><rect x="680" y="0" width="40" height="40" fill="#14110F"/><rect x="720" y="0" width="40" height="40" fill="#F3E9DC"/><rect x="760" y="0" width="40" height="40" fill="#14110F"/><rect x="800" y="0" width="40" height="40" fill="#F3E9DC"/><rect x="840" y="0" width="40" height="40" fill="#14110F"/><rect x="640" y="40" width="40" height="40" fill="#14110F"/><rect x="680" y="40" width="40" height="40" fill="#F3E9DC"/><rect x="720" y="40" width="40" height="40" fill="#14110F"/><rect x="760" y="40" width="40" height="40" fill="#F3E9DC"/><rect x="800" y="40" width="40" height="40" fill="#14110F"/><rect x="840" y="40" width="40" height="40" fill="#F3E9DC"/><rect x="640" y="80" width="40" height="40" fill="#F3E9DC"/><rect x="680" y="80" width="40" height="40" fill="#14110F"/><rect x="720" y="80" width="40" height="40" fill="#F3E9DC"/><rect x="760" y="80" width="40" height="40" fill="#14110F"/><rect x="800" y="80" width="40" height="40" fill="#F3E9DC"/><rect x="840" y="80" width="40" height="40" fill="#14110F"/><rect x="640" y="120" width="40" height="40" fill="#14110F"/><rect x="680" y="120" width="40" height="40" fill="#F3E9DC"/><rect x="720" y="120" width="40" height="40" fill="#14110F"/><rect x="760" y="120" width="40" height="40" fill="#F3E9DC"/><rect x="800" y="120" width="40" height="40" fill="#14110F"/><rect x="840" y="120" width="40" height="40" fill="#F3E9DC"/><rect x="640" y="160" width="40" height="40" fill="#F3E9DC"/><rect x="680" y="160" width="40" height="40" fill="#14110F"/><rect x="720" y="160" width="40" height="40" fill="#F3E9DC"/><rect x="760" y="160" width="40" height="40" fill="#14110F"/><rect x="800" y="160" width="40" height="40" fill="#F3E9DC"/><rect x="840" y="160" width="40" height="40" fill="#14110F"/><rect x="640" y="200" width="40" height="40" fill="#14110F"/><rect x="680" y="200" width="40" height="40" fill="#F3E9DC"/><rect x="720" y="200" width="40" height="40" fill="#14110F"/><rect x="760" y="200" width="40" height="40" fill="#F3E9DC"/><rect x="800" y="200" width="40" height="40" fill="#14110F"/><rect x="840" y="200" width="40" height="40" fill="#F3E9DC"/><rect x="640" y="240" width="40" height="40" fill="#F3E9DC"/><rect x="680" y="240" width="40" height="40" fill="#14110F"/><rect x="720" y="240" width="40" height="40" fill="#F3E9DC"/><rect x="760" y="240" width="40" height="40" fill="#14110F"/><rect x="800" y="240" width="40" height="40" fill="#F3E9DC"/><rect x="840" y="240" width="40" height="40" fill="#14110F"/><rect x="640" y="280" width="40" height="40" fill="#14110F"/><rect x="680" y="280" width="40" height="40" fill="#F3E9DC"/><rect x="720" y="280" width="40" height="40" fill="#14110F"/><rect x="760" y="280" width="40" height="40" fill="#F3E9DC"/><rect x="800" y="280" width="40" height="40" fill="#14110F"/><rect x="840" y="280" width="40" height="40" fill="#F3E9DC"/><rect x="640" y="320" width="40" height="40" fill="#F3E9DC"/><rect x="680" y="320" width="40" height="40" fill="#14110F"/><rect x="720" y="320" width="40" height="40" fill="#F3E9DC"/><rect x="760" y="320" width="40" height="40" fill="#14110F"/><rect x="800" y="320" width="40" height="40" fill="#F3E9DC"/><rect x="840" y="320" width="40" height="40" fill="#14110F"/><rect x="640" y="360" width="40" height="40" fill="#14110F"/><rect x="680" y="360" width="40" height="40" fill="#F3E9DC"/><rect x="720" y="360" width="40" height="40" fill="#14110F"/><rect x="760" y="360" width="40" height="40" fill="#F3E9DC"/><rect x="800" y="360" width="40" height="40" fill="#14110F"/><rect x="840" y="360" width="40" height="40" fill="#F3E9DC"/><rect x="640" y="400" width="40" height="40" fill="#F3E9DC"/><rect x="680" y="400" width="40" height="40" fill="#14110F"/><rect x="720" y="400" width="40" height="40" fill="#F3E9DC"/><rect x="760" y="400" width="40" height="40" fill="#14110F"/><rect x="800" y="400" width="40" height="40" fill="#F3E9DC"/><rect x="840" y="400" width="40" height="40" fill="#14110F"/><rect x="640" y="440" width="40" height="40" fill="#14110F"/><rect x="680" y="440" width="40" height="40" fill="#F3E9DC"/><rect x="720" y="440" width="40" height="40" fill="#14110F"/><rect x="760" y="440" width="40" height="40" fill="#F3E9DC"/><rect x="800" y="440" width="40" height="40" fill="#14110F"/><rect x="840" y="440" width="40" height="40" fill="#F3E9DC"/><rect x="640" y="480" width="40" height="40" fill="#F3E9DC"/><rect x="680" y="480" width="40" height="40" fill="#14110F"/><rect x="720" y="480" width="40" height="40" fill="#F3E9DC"/><rect x="760" y="480" width="40" height="40" fill="#14110F"/><rect x="800" y="480" width="40" height="40" fill="#F3E9DC"/><rect x="840" y="480" width="40" height="40" fill="#14110F"/><rect x="640" y="520" width="40" height="40" fill="#14110F"/><rect x="680" y="520" width="40" height="40" fill="#F3E9DC"/><rect x="720" y="520" width="40" height="40" fill="#14110F"/><rect x="760" y="520" width="40" height="40" fill="#F3E9DC"/><rect x="800" y="520" width="40" height="40" fill="#14110F"/><rect x="840" y="520" width="40" height="40" fill="#F3E9DC"/><rect x="640" y="560" width="40" height="40" fill="#F3E9DC"/><rect x="680" y="560" width="40" height="40" fill="#14110F"/><rect x="720" y="560" width="40" height="40" fill="#F3E9DC"/><rect x="760" y="560" width="40" height="40" fill="#14110F"/><rect x="800" y="560" width="40" height="40" fill="#F3E9DC"/><rect x="840" y="560" width="40" height="40" fill="#14110F"/><rect x="640" y="600" width="40" height="40" fill="#14110F"/><rect x="680" y="600" width="40" height="40" fill="#F3E9DC"/><rect x="720" y="600" width="40" height="40" fill="#14110F"/><rect x="760" y="600" width="40" height="40" fill="#F3E9DC"/><rect x="800" y="600" width="40" height="40" fill="#14110F"/><rect x="840" y="600" width="40" height="40" fill="#F3E9DC"/><rect x="640" y="640" width="40" height="40" fill="#F3E9DC"/><rect x="680" y="640" width="40" height="40" fill="#14110F"/><rect x="720" y="640" width="40" height="40" fill="#F3E9DC"/><rect x="760" y="640" width="40" height="40" fill="#14110F"/><rect x="800" y="640" width="40" height="40" fill="#F3E9DC"/><rect x="840" y="640" width="40" height="40" fill="#14110F"/><rect x="640" y="680" width="40" height="40" fill="#14110F"/><rect x="680" y="680" width="40" height="40" fill="#F3E9DC"/><rect x="720" y="680" width="40" height="40" fill="#14110F"/><rect x="760" y="680" width="40" height="40" fill="#F3E9DC"/><rect x="800" y="680" width="40" height="40" fill="#14110F"/><rect x="840" y="680" width="40" height="40" fill="#F3E9DC"/><rect x="640" y="720" width="40" height="40" fill="#F3E9DC"/><rect x="680" y="720" width="40" height="40" fill="#14110F"/><rect x="720" y="720" width="40" height="40" fill="#F3E9DC"/><rect x="760" y="720" width="40" height="40" fill="#14110F"/><rect x="800" y="720" width="40" height="40" fill="#F3E9DC"/><rect x="840" y="720" width="40" height="40" fill="#14110F"/><rect x="640" y="760" width="40" height="40" fill="#14110F"/><rect x="680" y="760" width="40" height="40" fill="#F3E9DC"/><rect x="720" y="760" width="40" height="40" fill="#14110F"/><rect x="760" y="760" width="40" height="40" fill="#F3E9DC"/><rect x="800" y="760" width="40" height="40" fill="#14110F"/><rect x="840" y="760" width="40" height="40" fill="#F3E9DC"/><rect x="640" y="800" width="40" height="40" fill="#F3E9DC"/><rect x="680" y="800" width="40" height="40" fill="#14110F"/><rect x="720" y="800" width="40" height="40" fill="#F3E9DC"/><rect x="760" y="800" width="40" height="40" fill="#14110F"/><rect x="800" y="800" width="40" height="40" fill="#F3E9DC"/><rect x="840" y="800" width="40" height="40" fill="#14110F"/><rect x="640" y="840" width="40" height="40" fill="#14110F"/><rect x="680" y="840" width="40" height="40" fill="#F3E9DC"/><rect x="720" y="840" width="40" height="40" fill="#14110F"/><rect x="760" y="840" width="40" height="40" fill="#F3E9DC"/><rect x="800" y="840" width="40" height="40" fill="#14110F"/><rect x="840" y="840" width="40" height="40" fill="#F3E9DC"/><rect x="640" y="880" width="40" height="40" fill="#F3E9DC"/><rect x="680" y="880" width="40" height="40" fill="#14110F"/><rect x="720" y="880" width="40" height="40" fill="#F3E9DC"/><rect x="760" y="880" width="40" height="40" fill="#14110F"/><rect x="800" y="880" width="40" height="40" fill="#F3E9DC"/><rect x="840" y="880" width="40" height="40" fill="#14110F"/><rect width="1600" height="900" fill="#14110F" filter="url(#g)"/></svg>